# xmcd
#
# Track frame offsets:
#	150
#	17887
#	33223
#	47734
#	69048
#	85998
#	102311
#	118397
#	140521
#	161034
#	175589
#	190963
#	206188
#	223213
#	244362
#	261536
#	280548
#	298378
#	318476
#
# Disc length: 4449 seconds
#
# Revision: 1
# Processed by: cddbd v1.5.2PL0 Copyright (c) Steve Scherf et al.
# Submitted via: EasyCDDAExtractor 7.0.4.1
#
DISCID=2e115f13
DTITLE=Various Artist - 黃偉文大選-Grateful版
DYEAR=1900
DGENRE=Pop
TTITLE0=李彩樺 - 你唔愛我啦
TTITLE1=李克勤 - 世界末日的早上
TTITLE2=周國賢 - 目黑
TTITLE3=Shine - 曼谷瑪利亞
TTITLE4=麥浚龍 - 沒有人
TTITLE5=梁詠琪 - 高妹正傳
TTITLE6=楊千嬅 - 可惜我是水瓶座
TTITLE7=楊千嬅 - 一個人的童話
TTITLE8=再見…露絲瑪莉 - 何韻詩
TTITLE9=麥浚龍 - 有人
TTITLE10=Cookies - 心急人上
TTITLE11=梁詠琪 - 你救哪一個
TTITLE12=陳小春 - 一句到尾
TTITLE13=何韻詩 - 千千萬萬個我
TTITLE14=鄭秀文 - 如何掉眼淚\
TTITLE15=鄭秀文 - 如果我們不再見
TTITLE16=車婉婉/許\志安 - 會過去的
TTITLE17=小王子
TTITLE18=第二最愛
EXTD=
EXTT0=
EXTT1=
EXTT2=
EXTT3=
EXTT4=
EXTT5=
EXTT6=
EXTT7=
EXTT8=
EXTT9=
EXTT10=
EXTT11=
EXTT12=
EXTT13=
EXTT14=
EXTT15=
EXTT16=
EXTT17=
EXTT18=
PLAYORDER=
